<?xml version="1.0" standalone="no"?><!DOCTYPE svg PUBLIC "-//W3C//DTD SVG 1.1//EN" "http://www.w3.org/Graphics/SVG/1.1/DTD/svg11.dtd"><svg t="1678983648067" class="icon" viewBox="0 0 1024 1024" version="1.1" xmlns="http://www.w3.org/2000/svg" p-id="2766" xmlns:xlink="http://www.w3.org/1999/xlink" width="200" height="200"><path d="M929 126.6c0-0.04-0.01-0.08-0.01-0.12-0.07-17.19-13.71-31.09-30.76-31.75-0.42-0.02-0.81-0.13-1.23-0.13H128.98c-2.13 0-4.25 0.22-6.34 0.64-0.41 0.08-0.79 0.25-1.19 0.35-1.65 0.4-3.29 0.85-4.87 1.51-0.14 0.06-0.26 0.15-0.4 0.21-3.57 1.55-6.94 3.71-9.84 6.62-2.89 2.89-5.03 6.23-6.58 9.77-0.07 0.17-0.18 0.31-0.25 0.47-0.65 1.56-1.1 3.18-1.49 4.8-0.1 0.43-0.28 0.82-0.37 1.26a32.16 32.16 0 0 0-0.64 6.34v160.02c0 17.67 14.33 32 32 32V862.6c-17.6 0-32 14.4-32 32s14.4 32 32 32h192c17.6 0 32-14.4 32-32s-14.4-32-32-32h-16v-3.83a32.059 32.059 0 0 0 0-17.59v-185.2a32.077 32.077 0 0 0 0-17.33V453.31a32.114 32.114 0 0 0 0-17.34V318.6h128.37a32.077 32.077 0 0 0 17.33 0h134.33a32.077 32.077 0 0 0 17.33 0H721v544h-16c-17.6 0-32 14.4-32 32s14.4 32 32 32h192c17.6 0 32-14.4 32-32s-14.4-32-32-32V745.23a32.114 32.114 0 0 0 0-17.34v-27.23c0.8-2.8 1.37-5.69 1.37-8.73s-0.57-5.93-1.37-8.73V542.7a32.059 32.059 0 0 0 0-17.59v-27.1c0.8-2.8 1.37-5.69 1.37-8.73s-0.57-5.94-1.37-8.73V340.03a32.059 32.059 0 0 0 0-17.59v-2.5c8.21 0.01 16.43-3.1 22.67-9.33 6.4-6.4 9.45-14.9 9.27-23.33 0-0.23 0.07-0.44 0.07-0.67V126.6H929z m-153.6 128v-43.01l43.01 43.01H775.4z m-64-45.85l-50.15-50.15h50.15v50.15zM211.75 254.6H161v-50.75l50.75 50.75z m-5.5-96h44.34v44.34l-44.34-44.34zM241 457.27h-48v-48.75l48 48v0.75z m0 202.67h-48v-48.75l48 48v0.75z m0 64v47.37l-47.37-47.37H241z m-47.41-202.67H241v47.41l-47.41-47.41z m0-202.67H241v47.41l-47.41-47.41zM314.6 205.79l48.81 48.81H314.6v-48.81z m43.32-47.19h46.28v46.28l-46.28-46.28z m110.28 49.13l46.88 46.88H468.2v-46.88z m41.39-49.13h48.21v48.21l-48.21-48.21z m112.21 51.06l44.95 44.94H621.8v-44.94zM833 522.06l-48 48v-48.78h48v0.78z m-48 201.88h48v0.75l-48 48v-48.75z m48-64h-47.37L833 612.57v47.37z m0-202.67h-47.37L833 409.9v47.37z m-48-89.88V318.6h48v0.78l-48 48.01z m27.92-208.79H865v52.08l-52.08-52.08zM193 813.82l48 48v0.78h-48v-48.78z m592.59 48.78L833 815.19v47.41h-47.41z" fill="#13227a" p-id="2767"></path></svg>